<svg style="max-height: 500px" xml:space="preserve" xmlns:xlink="http://www.w3.org/1999/xlink" xmlns="http://www.w3.org/2000/svg" version="1.1" viewBox="1455.4795539033457 1061.296 1544.7583643122678 410.90000000000003" width="1544.7583643122678" height="410.90000000000003">
    <g transform="matrix(0.733119,0,0,0.530727,0,0)" id="Mesa-de-trabajo1">
        <rect style="fill:none;" height="2388" width="1668" y="0" x="0"/>
        <g transform="matrix(2.51151,-9.67147e-20,-7.26489e-20,3.46927,-260.365,-2701.11)">
            <g>
                <path fill="white" d="M581.496,1084.83L636.934,1063.33C667.172,1104.98 654.107,1171.63 654.107,1171.63L640.058,1174.78L632.618,1238.15C559.099,1241.83 544.295,1197.15 544.295,1197.15L577.7,1147.86L581.496,1084.83ZM596.077,1093.92L623.488,1114.28L591.923,1184.45L606.667,1125L590.723,1108.31L589.405,1155.24L557.901,1194C575.668,1228.37 623.301,1231.13 623.301,1231.13L626.268,1162.73L644.868,1157.03C648.457,1102.56 632.618,1074.45 632.618,1074.45L596.077,1093.92Z"/>
                <path fill="white" d="M514.384,1204.13C534.082,1213.86 557.071,1227.32 580.2,1245.5C641.847,1293.96 653.6,1345.9 653.6,1345.9L417.101,1347.68C428.176,1282.92 496.285,1280.45 496.285,1280.45L555.322,1330.52L577.829,1331.35C577.829,1331.35 568.592,1310.88 553.018,1291.95C537.443,1273.01 514.204,1254.79 514.204,1254.79C514.204,1254.79 481.714,1266.28 442.254,1287.87C402.793,1309.45 369.1,1356.38 369.1,1356.38C297.6,1315.86 214.202,1219.4 214.202,1219.4L260.755,1172.71L215.407,1119.72C215.407,1119.72 250.23,1090.94 286.725,1050.86C323.219,1010.78 365.278,956.347 365.278,956.347L397.093,982.644L487.751,889.116C487.751,889.116 582.684,973.922 602.202,992.518C607.459,997.528 598.297,1000.71 595.773,998.619C590.252,994.037 490.569,915.175 490.569,915.175L402.791,1009.09L367.512,979.856C323.582,1047.14 240.427,1120.95 240.427,1120.95L274.59,1160.21L376.976,1059.9L415.73,1095.56C415.73,1095.56 410.373,1046.58 413.958,1040.01C427.429,1015.33 496.54,947.428 496.54,947.428L581.892,1001.43L429.417,1042.34L433.49,1137.68L374.77,1083.86L286.84,1174.72L355.879,1243.96L423.199,1174.14L379.094,1145.89C379.094,1145.89 345.57,1172.39 345.782,1176.98C346.099,1183.82 370.216,1193.86 370.028,1194L381.005,1182.47L395.133,1186.75L370.961,1207.81C353.022,1206.65 325.679,1182.1 325.679,1182.1C336.744,1147.24 378.755,1127.53 378.755,1127.53L455.225,1173.55C455.225,1173.55 356.053,1273.18 355.952,1272.58C355.85,1271.97 274.039,1186.77 274.039,1186.77L241.867,1219.04C278.411,1263.81 365.224,1331.76 365.224,1331.76C412.492,1267.43 494.087,1243.88 494.087,1243.88C481.163,1232.59 456.154,1226.56 456.154,1226.56L457.906,1182.11C457.906,1182.11 475.663,1186.48 501.728,1198.17L559.801,1141.61L556.81,1086.34L472.328,1117.59L510.615,1152.58L537.017,1128.2L525.394,1117.01L514.326,1133.74L497.727,1125.22L530.712,1101.57L551.711,1125.42L506.666,1171.63L448.533,1114.92C500.339,1090.93 557.936,1067.25 624.108,1044.01L603.935,1020.28L579.236,1050.11L544.295,1044.67L514.695,1077.67L483.674,1060.16C483.674,1060.16 448.018,1099.53 446.899,1096.18C445.78,1092.84 469.821,1049.16 482.138,1047.13C487.66,1046.21 512.211,1063.33 512.211,1063.33C512.211,1063.33 536.431,1030.61 539.924,1028.63C544.599,1025.98 573.634,1034.05 573.634,1034.05C573.634,1034.05 595.858,1010.59 595.97,1010.38C596.082,1010.17 601.424,1002.25 609.893,1009.45C616.789,1015.31 640.058,1041.45 640.058,1041.45C643.589,1044.8 644.082,1050.66 637.945,1053.41L565.757,1080.88L572.035,1143.35L514.384,1204.13ZM493.999,1296.71C493.999,1296.71 449.355,1298.56 435.558,1332.81L536.439,1331.17L493.999,1296.71ZM448.533,1018.8L546.921,995.969L498.975,965.03L448.533,1018.8ZM468.736,1197.15L468.736,1216.71C468.736,1216.71 520.58,1236.11 549.694,1267.41C578.809,1298.71 595.373,1330.58 595.373,1330.58L632.618,1332.02C632.618,1332.02 624.686,1305.16 575.722,1258.36C529.912,1214.57 468.736,1197.15 468.736,1197.15Z"/>
            </g>
        </g>
    </g>
    <g transform="matrix(0.857753,0,0,0.369952,1340.96,0)" id="Mesa-de-trabajo11">
        <rect style="fill:none;" height="2388" width="1668" y="0" x="0"/>
        <g transform="matrix(1.53767,0,0,2.49025,-434.423,-2824.87)">
            <g transform="matrix(0.955263,0,0,1.36761,194.955,78.1723)">
                <g>
                    <path fill="white" d="M581.496,1084.83L636.934,1063.33C667.172,1104.98 654.107,1171.63 654.107,1171.63L640.058,1174.78L632.618,1238.15C559.099,1241.83 544.295,1197.15 544.295,1197.15L577.7,1147.86L581.496,1084.83ZM596.077,1093.92L623.488,1114.28L591.923,1184.45L606.667,1125L590.723,1108.31L589.405,1155.24L557.901,1194C575.668,1228.37 623.301,1231.13 623.301,1231.13L626.268,1162.73L644.868,1157.03C648.457,1102.56 632.618,1074.45 632.618,1074.45L596.077,1093.92Z"/>
                    <path fill="white" d="M514.384,1204.13C534.082,1213.86 557.071,1227.32 580.2,1245.5C641.847,1293.96 653.6,1345.9 653.6,1345.9L417.101,1347.68C428.176,1282.92 496.285,1280.45 496.285,1280.45L555.322,1330.52L577.829,1331.35C577.829,1331.35 568.592,1310.88 553.018,1291.95C537.443,1273.01 514.204,1254.79 514.204,1254.79C514.204,1254.79 481.714,1266.28 442.254,1287.87C402.793,1309.45 369.1,1356.38 369.1,1356.38C297.6,1315.86 214.202,1219.4 214.202,1219.4L260.755,1172.71L215.407,1119.72C215.407,1119.72 250.23,1090.94 286.725,1050.86C323.219,1010.78 365.278,956.347 365.278,956.347L397.093,982.644L487.751,889.116C487.751,889.116 582.684,973.922 602.202,992.518C607.459,997.528 598.297,1000.71 595.773,998.619C590.252,994.037 490.569,915.175 490.569,915.175L402.791,1009.09L367.512,979.856C323.582,1047.14 240.427,1120.95 240.427,1120.95L274.59,1160.21L376.976,1059.9L415.73,1095.56C415.73,1095.56 410.373,1046.58 413.958,1040.01C427.429,1015.33 496.54,947.428 496.54,947.428L581.892,1001.43L429.417,1042.34L433.49,1137.68L374.77,1083.86L286.84,1174.72L355.879,1243.96L423.199,1174.14L379.094,1145.89C379.094,1145.89 345.57,1172.39 345.782,1176.98C346.099,1183.82 370.216,1193.86 370.028,1194L381.005,1182.47L395.133,1186.75L370.961,1207.81C353.022,1206.65 325.679,1182.1 325.679,1182.1C336.744,1147.24 378.755,1127.53 378.755,1127.53L455.225,1173.55C455.225,1173.55 356.053,1273.18 355.952,1272.58C355.85,1271.97 274.039,1186.77 274.039,1186.77L241.867,1219.04C278.411,1263.81 365.224,1331.76 365.224,1331.76C412.492,1267.43 494.087,1243.88 494.087,1243.88C481.163,1232.59 456.154,1226.56 456.154,1226.56L457.906,1182.11C457.906,1182.11 475.663,1186.48 501.728,1198.17L559.801,1141.61L556.81,1086.34L472.328,1117.59L510.615,1152.58L537.017,1128.2L525.394,1117.01L514.326,1133.74L497.727,1125.22L530.712,1101.57L551.711,1125.42L506.666,1171.63L448.533,1114.92C500.339,1090.93 557.936,1067.25 624.108,1044.01L603.935,1020.28L579.236,1050.11L544.295,1044.67L514.695,1077.67L483.674,1060.16C483.674,1060.16 448.018,1099.53 446.899,1096.18C445.78,1092.84 469.821,1049.16 482.138,1047.13C487.66,1046.21 512.211,1063.33 512.211,1063.33C512.211,1063.33 536.431,1030.61 539.924,1028.63C544.599,1025.98 573.634,1034.05 573.634,1034.05C573.634,1034.05 595.858,1010.59 595.97,1010.38C596.082,1010.17 601.424,1002.25 609.893,1009.45C616.789,1015.31 640.058,1041.45 640.058,1041.45C643.589,1044.8 644.082,1050.66 637.945,1053.41L565.757,1080.88L572.035,1143.35L514.384,1204.13ZM493.999,1296.71C493.999,1296.71 449.355,1298.56 435.558,1332.81L536.439,1331.17L493.999,1296.71ZM448.533,1018.8L546.921,995.969L498.975,965.03L448.533,1018.8ZM468.736,1197.15L468.736,1216.71C468.736,1216.71 520.58,1236.11 549.694,1267.41C578.809,1298.71 595.373,1330.58 595.373,1330.58L632.618,1332.02C632.618,1332.02 624.686,1305.16 575.722,1258.36C529.912,1214.57 468.736,1197.15 468.736,1197.15Z"/>
                </g>
            </g>
            <g transform="matrix(1,0,0,1,-252.479,95.7687)">
                <g transform="matrix(0.940254,0,0,1.34612,274.362,-667.798)">
                    <g transform="matrix(0.244848,0,0,0.149884,1060.86,1245.61)">
                        <path fill="white" d="M297.674,938.833L448.891,938.833L448.891,1767.63L337.537,1984.32L180.591,1984.32L180.591,1166.67L297.674,938.833ZM392.919,1030.27L323.767,1030.27L236.563,1199.96L236.563,1892.89L311.444,1892.89L392.919,1734.34L392.919,1030.27ZM342.727,1383.23L342.727,1539.93L286.755,1539.93L286.755,1383.23L342.727,1383.23Z"/>
                    </g>
                    <g transform="matrix(1,0,0,1,613.871,0)">
                        <path fill="white" d="M287.048,1543.03L287.048,1386.33L337.267,1386.33L337.267,1430.02L323.563,1430.02L323.563,1400.03L300.753,1400.03L300.753,1472.24L320.001,1472.24L320.001,1485.94L300.753,1485.94L300.753,1529.33L341.438,1529.33L341.438,1543.03L287.048,1543.03Z"/>
                    </g>
                    <g transform="matrix(1,0,0,1,898.736,0.62328)">
                        <path fill="white" d="M287.048,1543.03L287.048,1386.33L337.267,1386.33L337.267,1430.02L323.563,1430.02L323.563,1400.03L300.753,1400.03L300.753,1472.24L320.001,1472.24L320.001,1485.94L300.753,1485.94L300.753,1529.33L341.438,1529.33L341.438,1543.03L287.048,1543.03Z"/>
                    </g>
                    <g transform="matrix(1,0,0,1,613.871,0)">
                        <path fill="white" d="M355.273,1543.03L355.273,1386.33L404.862,1386.33L404.862,1400.03L368.978,1400.03L368.978,1529.33L408.694,1529.33L408.694,1543.03L355.273,1543.03Z"/>
                    </g>
                    <g transform="matrix(1,0,0,1,613.871,0)">
                        <path fill="white" d="M635.367,1464.68L635.367,1386.33L692.679,1386.33L692.679,1400.03L649.072,1400.03L649.072,1450.98L692.679,1450.98L692.679,1543.03L635.367,1543.03L635.367,1529.33L678.975,1529.33L678.975,1464.68L635.367,1464.68Z"/>
                    </g>
                    <g transform="matrix(0.18753,0.157426,-0.379821,0.452454,1623.42,697.311)">
                        <path fill="white" d="M148.217,1471.28L305.125,1548.75L262.255,1563.66L105.347,1486.19L148.217,1471.28ZM226.517,1628.02L419.413,1723.26L376.543,1738.17L183.648,1642.93L226.517,1628.02ZM311.093,1587.77L170.798,1636.59L-34.947,1535.01L7.923,1520.09L177.68,1603.9L317.975,1555.09L559.707,1674.44L516.838,1689.36L311.093,1587.77Z"/>
                    </g>
                </g>
                <g transform="matrix(0.940254,0,0,1.34612,278.451,-667.798)">
                    <g transform="matrix(0.156812,0,0,0.0959927,932.864,1480.2)">
                        <path fill="white" d="M297.674,938.833L448.891,938.833L448.891,1767.63L337.537,1984.32L180.591,1984.32L180.591,1166.67L297.674,938.833ZM392.919,1030.27L323.767,1030.27L236.563,1199.96L236.563,1892.89L311.444,1892.89L392.919,1734.34L392.919,1030.27ZM342.727,1383.23L342.727,1539.93L286.755,1539.93L286.755,1383.23L342.727,1383.23Z"/>
                    </g>
                    <g transform="matrix(1,0,0,1,16.2829,1.83773)">
                        <path fill="white" d="M1088.81,1577.33L1070.36,1577.33L1070.36,1568.55L1136.57,1568.55L1136.57,1577.33L1111.77,1577.33L1111.77,1668.91L1102.99,1668.91L1102.99,1577.33L1097.59,1577.33L1097.59,1668.91L1088.81,1668.91L1088.81,1577.33Z"/>
                    </g>
                    <g transform="matrix(1,0,0,1,-6.44921,1.83773)">
                        <path fill="white" d="M1016.29,1668.91L1016.29,1568.55L1064.47,1568.55L1064.47,1577.33L1039.25,1577.33L1039.25,1614.34L1053.14,1614.34L1053.14,1623.12L1039.25,1623.12L1039.25,1668.91L1030.47,1668.91L1030.47,1577.33L1025.07,1577.33L1025.07,1668.91L1016.29,1668.91Z"/>
                    </g>
                    <g transform="matrix(0.120103,0.100823,-0.243254,0.289771,1535.76,1129.11)">
                        <path fill="white" d="M148.217,1471.28L305.125,1548.75L262.255,1563.66L105.347,1486.19L148.217,1471.28ZM226.517,1628.02L419.413,1723.26L376.543,1738.17L183.648,1642.93L226.517,1628.02ZM311.093,1587.77L170.798,1636.59L-34.947,1535.01L7.923,1520.09L177.68,1603.9L317.975,1555.09L559.707,1674.44L516.838,1689.36L311.093,1587.77Z"/>
                    </g>
                    <g transform="matrix(0.640444,0,0,0.640444,1018.91,682.521)">
                        <path fill="white" d="M287.048,1543.03L287.048,1386.33L337.267,1386.33L337.267,1430.02L323.563,1430.02L323.563,1400.03L300.753,1400.03L300.753,1472.24L320.001,1472.24L320.001,1485.94L300.753,1485.94L300.753,1529.33L341.438,1529.33L341.438,1543.03L287.048,1543.03Z"/>
                    </g>
                </g>
                <g transform="matrix(0.940254,0,0,1.34612,287.618,-667.798)">
                    <g transform="matrix(1,0,0,1,588.963,2.39666)">
                        <path fill="white" d="M384.1,1745.04L320.99,1851.85L305.072,1851.85L397.805,1694.9L397.805,1851.85L384.1,1851.85L384.1,1829.74L343.69,1829.74L364.992,1790.06L374.355,1803.44L368.141,1816.7L384.1,1816.04L384.1,1745.04Z"/>
                    </g>
                    <g transform="matrix(1,0,0,1,875.003,311.093)">
                        <path fill="white" d="M287.048,1543.03L287.048,1386.33L337.267,1386.33L337.267,1430.02L323.563,1430.02L323.563,1400.03L300.753,1400.03L300.753,1472.24L320.001,1472.24L320.001,1485.94L300.753,1485.94L300.753,1529.33L341.438,1529.33L341.438,1543.03L287.048,1543.03Z"/>
                    </g>
                    <g transform="matrix(1,0,0,1,592.556,311.093)">
                        <path fill="white" d="M635.367,1464.68L635.367,1386.33L692.679,1386.33L692.679,1400.03L649.072,1400.03L649.072,1450.98L692.679,1450.98L692.679,1543.03L635.367,1543.03L635.367,1529.33L678.975,1529.33L678.975,1464.68L635.367,1464.68Z"/>
                    </g>
                    <g transform="matrix(1,0,0,1,607.539,2.0212)">
                        <path fill="white" d="M475.237,1851.79L475.237,1695.72L540.93,1719.85L540.93,1825.62L475.237,1851.79ZM527.225,1729.2L488.942,1715.79L488.942,1831.71L527.225,1816.27L527.225,1729.2Z"/>
                    </g>
                    <g transform="matrix(1,0,0,1,593.274,1.95466)">
                        <path fill="white" d="M409.079,1851.85L409.079,1695.67L474.772,1726.02L474.772,1851.85L461.068,1851.85L461.068,1734.23L422.784,1718.55L422.784,1851.85L409.079,1851.85Z"/>
                    </g>
                </g>
            </g>
        </g>
    </g>
    <g transform="matrix(0.534571,0,0,0.647933,0,1387.49)" id="Mesa-de-trabajo12">
        <rect style="fill:none;" height="2388" width="1668" y="0" x="0"/>
        <g transform="matrix(2.4673,0,0,1.42186,-1317.27,-706.327)">
            <g transform="matrix(0.86162,0,0,1.23354,496.617,-389.06)">
                <g>
                    <path fill="white" d="M581.496,1084.83L636.934,1063.33C667.172,1104.98 654.107,1171.63 654.107,1171.63L640.058,1174.78L632.618,1238.15C559.099,1241.83 544.295,1197.15 544.295,1197.15L577.7,1147.86L581.496,1084.83ZM596.077,1093.92L623.488,1114.28L591.923,1184.45L606.667,1125L590.723,1108.31L589.405,1155.24L557.901,1194C575.668,1228.37 623.301,1231.13 623.301,1231.13L626.268,1162.73L644.868,1157.03C648.457,1102.56 632.618,1074.45 632.618,1074.45L596.077,1093.92Z"/>
                    <path fill="white" d="M514.384,1204.13C534.082,1213.86 557.071,1227.32 580.2,1245.5C641.847,1293.96 653.6,1345.9 653.6,1345.9L417.101,1347.68C428.176,1282.92 496.285,1280.45 496.285,1280.45L555.322,1330.52L577.829,1331.35C577.829,1331.35 568.592,1310.88 553.018,1291.95C537.443,1273.01 514.204,1254.79 514.204,1254.79C514.204,1254.79 481.714,1266.28 442.254,1287.87C402.793,1309.45 369.1,1356.38 369.1,1356.38C297.6,1315.86 214.202,1219.4 214.202,1219.4L260.755,1172.71L215.407,1119.72C215.407,1119.72 250.23,1090.94 286.725,1050.86C323.219,1010.78 365.278,956.347 365.278,956.347L397.093,982.644L487.751,889.116C487.751,889.116 582.684,973.922 602.202,992.518C607.459,997.528 598.297,1000.71 595.773,998.619C590.252,994.037 490.569,915.175 490.569,915.175L402.791,1009.09L367.512,979.856C323.582,1047.14 240.427,1120.95 240.427,1120.95L274.59,1160.21L376.976,1059.9L415.73,1095.56C415.73,1095.56 410.373,1046.58 413.958,1040.01C427.429,1015.33 496.54,947.428 496.54,947.428L581.892,1001.43L429.417,1042.34L433.49,1137.68L374.77,1083.86L286.84,1174.72L355.879,1243.96L423.199,1174.14L379.094,1145.89C379.094,1145.89 345.57,1172.39 345.782,1176.98C346.099,1183.82 370.216,1193.86 370.028,1194L381.005,1182.47L395.133,1186.75L370.961,1207.81C353.022,1206.65 325.679,1182.1 325.679,1182.1C336.744,1147.24 378.755,1127.53 378.755,1127.53L455.225,1173.55C455.225,1173.55 356.053,1273.18 355.952,1272.58C355.85,1271.97 274.039,1186.77 274.039,1186.77L241.867,1219.04C278.411,1263.81 365.224,1331.76 365.224,1331.76C412.492,1267.43 494.087,1243.88 494.087,1243.88C481.163,1232.59 456.154,1226.56 456.154,1226.56L457.906,1182.11C457.906,1182.11 475.663,1186.48 501.728,1198.17L559.801,1141.61L556.81,1086.34L472.328,1117.59L510.615,1152.58L537.017,1128.2L525.394,1117.01L514.326,1133.74L497.727,1125.22L530.712,1101.57L551.711,1125.42L506.666,1171.63L448.533,1114.92C500.339,1090.93 557.936,1067.25 624.108,1044.01L603.935,1020.28L579.236,1050.11L544.295,1044.67L514.695,1077.67L483.674,1060.16C483.674,1060.16 448.018,1099.53 446.899,1096.18C445.78,1092.84 469.821,1049.16 482.138,1047.13C487.66,1046.21 512.211,1063.33 512.211,1063.33C512.211,1063.33 536.431,1030.61 539.924,1028.63C544.599,1025.98 573.634,1034.05 573.634,1034.05C573.634,1034.05 595.858,1010.59 595.97,1010.38C596.082,1010.17 601.424,1002.25 609.893,1009.45C616.789,1015.31 640.058,1041.45 640.058,1041.45C643.589,1044.8 644.082,1050.66 637.945,1053.41L565.757,1080.88L572.035,1143.35L514.384,1204.13ZM493.999,1296.71C493.999,1296.71 449.355,1298.56 435.558,1332.81L536.439,1331.17L493.999,1296.71ZM448.533,1018.8L546.921,995.969L498.975,965.03L448.533,1018.8ZM468.736,1197.15L468.736,1216.71C468.736,1216.71 520.58,1236.11 549.694,1267.41C578.809,1298.71 595.373,1330.58 595.373,1330.58L632.618,1332.02C632.618,1332.02 624.686,1305.16 575.722,1258.36C529.912,1214.57 468.736,1197.15 468.736,1197.15Z"/>
                </g>
            </g>
            <g transform="matrix(1,0,0,1,-440.222,137.345)">
                <g transform="matrix(0.940254,0,0,1.34612,274.362,-667.798)">
                    <g transform="matrix(0.244848,0,0,0.149884,1060.86,1245.61)">
                        <path fill="white" d="M297.674,938.833L448.891,938.833L448.891,1767.63L337.537,1984.32L180.591,1984.32L180.591,1166.67L297.674,938.833ZM392.919,1030.27L323.767,1030.27L236.563,1199.96L236.563,1892.89L311.444,1892.89L392.919,1734.34L392.919,1030.27ZM342.727,1383.23L342.727,1539.93L286.755,1539.93L286.755,1383.23L342.727,1383.23Z"/>
                    </g>
                    <g transform="matrix(1,0,0,1,613.871,0)">
                        <path fill="white" d="M287.048,1543.03L287.048,1386.33L337.267,1386.33L337.267,1430.02L323.563,1430.02L323.563,1400.03L300.753,1400.03L300.753,1472.24L320.001,1472.24L320.001,1485.94L300.753,1485.94L300.753,1529.33L341.438,1529.33L341.438,1543.03L287.048,1543.03Z"/>
                    </g>
                    <g transform="matrix(1,0,0,1,898.736,0.62328)">
                        <path fill="white" d="M287.048,1543.03L287.048,1386.33L337.267,1386.33L337.267,1430.02L323.563,1430.02L323.563,1400.03L300.753,1400.03L300.753,1472.24L320.001,1472.24L320.001,1485.94L300.753,1485.94L300.753,1529.33L341.438,1529.33L341.438,1543.03L287.048,1543.03Z"/>
                    </g>
                    <g transform="matrix(1,0,0,1,613.871,0)">
                        <path fill="white" d="M355.273,1543.03L355.273,1386.33L404.862,1386.33L404.862,1400.03L368.978,1400.03L368.978,1529.33L408.694,1529.33L408.694,1543.03L355.273,1543.03Z"/>
                    </g>
                    <g transform="matrix(1,0,0,1,613.871,0)">
                        <path fill="white" d="M635.367,1464.68L635.367,1386.33L692.679,1386.33L692.679,1400.03L649.072,1400.03L649.072,1450.98L692.679,1450.98L692.679,1543.03L635.367,1543.03L635.367,1529.33L678.975,1529.33L678.975,1464.68L635.367,1464.68Z"/>
                    </g>
                    <g transform="matrix(0.18753,0.157426,-0.379821,0.452454,1623.42,697.311)">
                        <path fill="white" d="M148.217,1471.28L305.125,1548.75L262.255,1563.66L105.347,1486.19L148.217,1471.28ZM226.517,1628.02L419.413,1723.26L376.543,1738.17L183.648,1642.93L226.517,1628.02ZM311.093,1587.77L170.798,1636.59L-34.947,1535.01L7.923,1520.09L177.68,1603.9L317.975,1555.09L559.707,1674.44L516.838,1689.36L311.093,1587.77Z"/>
                    </g>
                </g>
                <g transform="matrix(0.940254,0,0,1.34612,278.451,-667.798)">
                    <g transform="matrix(0.156812,0,0,0.0959927,932.864,1480.2)">
                        <path fill="white" d="M297.674,938.833L448.891,938.833L448.891,1767.63L337.537,1984.32L180.591,1984.32L180.591,1166.67L297.674,938.833ZM392.919,1030.27L323.767,1030.27L236.563,1199.96L236.563,1892.89L311.444,1892.89L392.919,1734.34L392.919,1030.27ZM342.727,1383.23L342.727,1539.93L286.755,1539.93L286.755,1383.23L342.727,1383.23Z"/>
                    </g>
                    <g transform="matrix(1,0,0,1,16.2829,1.83773)">
                        <path fill="white" d="M1088.81,1577.33L1070.36,1577.33L1070.36,1568.55L1136.57,1568.55L1136.57,1577.33L1111.77,1577.33L1111.77,1668.91L1102.99,1668.91L1102.99,1577.33L1097.59,1577.33L1097.59,1668.91L1088.81,1668.91L1088.81,1577.33Z"/>
                    </g>
                    <g transform="matrix(1,0,0,1,-6.44921,1.83773)">
                        <path fill="white" d="M1016.29,1668.91L1016.29,1568.55L1064.47,1568.55L1064.47,1577.33L1039.25,1577.33L1039.25,1614.34L1053.14,1614.34L1053.14,1623.12L1039.25,1623.12L1039.25,1668.91L1030.47,1668.91L1030.47,1577.33L1025.07,1577.33L1025.07,1668.91L1016.29,1668.91Z"/>
                    </g>
                    <g transform="matrix(0.120103,0.100823,-0.243254,0.289771,1535.76,1129.11)">
                        <path fill="white" d="M148.217,1471.28L305.125,1548.75L262.255,1563.66L105.347,1486.19L148.217,1471.28ZM226.517,1628.02L419.413,1723.26L376.543,1738.17L183.648,1642.93L226.517,1628.02ZM311.093,1587.77L170.798,1636.59L-34.947,1535.01L7.923,1520.09L177.68,1603.9L317.975,1555.09L559.707,1674.44L516.838,1689.36L311.093,1587.77Z"/>
                    </g>
                    <g transform="matrix(0.640444,0,0,0.640444,1018.91,682.521)">
                        <path fill="white" d="M287.048,1543.03L287.048,1386.33L337.267,1386.33L337.267,1430.02L323.563,1430.02L323.563,1400.03L300.753,1400.03L300.753,1472.24L320.001,1472.24L320.001,1485.94L300.753,1485.94L300.753,1529.33L341.438,1529.33L341.438,1543.03L287.048,1543.03Z"/>
                    </g>
                </g>
                <g transform="matrix(0.940254,0,0,1.34612,287.618,-667.798)">
                    <g transform="matrix(1,0,0,1,588.963,2.39666)">
                        <path fill="white" d="M384.1,1745.04L320.99,1851.85L305.072,1851.85L397.805,1694.9L397.805,1851.85L384.1,1851.85L384.1,1829.74L343.69,1829.74L364.992,1790.06L374.355,1803.44L368.141,1816.7L384.1,1816.04L384.1,1745.04Z"/>
                    </g>
                    <g transform="matrix(1,0,0,1,875.003,311.093)">
                        <path fill="white" d="M287.048,1543.03L287.048,1386.33L337.267,1386.33L337.267,1430.02L323.563,1430.02L323.563,1400.03L300.753,1400.03L300.753,1472.24L320.001,1472.24L320.001,1485.94L300.753,1485.94L300.753,1529.33L341.438,1529.33L341.438,1543.03L287.048,1543.03Z"/>
                    </g>
                    <g transform="matrix(1,0,0,1,592.556,311.093)">
                        <path fill="white" d="M635.367,1464.68L635.367,1386.33L692.679,1386.33L692.679,1400.03L649.072,1400.03L649.072,1450.98L692.679,1450.98L692.679,1543.03L635.367,1543.03L635.367,1529.33L678.975,1529.33L678.975,1464.68L635.367,1464.68Z"/>
                    </g>
                    <g transform="matrix(1,0,0,1,607.539,2.0212)">
                        <path fill="white" d="M475.237,1851.79L475.237,1695.72L540.93,1719.85L540.93,1825.62L475.237,1851.79ZM527.225,1729.2L488.942,1715.79L488.942,1831.71L527.225,1816.27L527.225,1729.2Z"/>
                    </g>
                    <g transform="matrix(1,0,0,1,593.274,1.95466)">
                        <path fill="white" d="M409.079,1851.85L409.079,1695.67L474.772,1726.02L474.772,1851.85L461.068,1851.85L461.068,1734.23L422.784,1718.55L422.784,1851.85L409.079,1851.85Z"/>
                    </g>
                </g>
            </g>
        </g>
    </g>
    <g transform="matrix(1.09029,0,0,0.212397,1340.96,1013.77)" id="Mesa-de-trabajo13">
        <rect style="fill:none;" height="2388" width="1668" y="0" x="0"/>
        <g transform="matrix(1.20971,0,0,4.3375,-1195.46,-4507.2)">
            <g transform="matrix(0.940254,0,0,1.34612,274.362,-667.798)">
                <g transform="matrix(0.244848,0,0,0.149884,1060.86,1245.61)">
                    <path fill="white" d="M297.674,938.833L448.891,938.833L448.891,1767.63L337.537,1984.32L180.591,1984.32L180.591,1166.67L297.674,938.833ZM392.919,1030.27L323.767,1030.27L236.563,1199.96L236.563,1892.89L311.444,1892.89L392.919,1734.34L392.919,1030.27ZM342.727,1383.23L342.727,1539.93L286.755,1539.93L286.755,1383.23L342.727,1383.23Z"/>
                </g>
                <g transform="matrix(1,0,0,1,613.871,0)">
                    <path fill="white" d="M287.048,1543.03L287.048,1386.33L337.267,1386.33L337.267,1430.02L323.563,1430.02L323.563,1400.03L300.753,1400.03L300.753,1472.24L320.001,1472.24L320.001,1485.94L300.753,1485.94L300.753,1529.33L341.438,1529.33L341.438,1543.03L287.048,1543.03Z"/>
                </g>
                <g transform="matrix(1,0,0,1,898.736,0.62328)">
                    <path fill="white" d="M287.048,1543.03L287.048,1386.33L337.267,1386.33L337.267,1430.02L323.563,1430.02L323.563,1400.03L300.753,1400.03L300.753,1472.24L320.001,1472.24L320.001,1485.94L300.753,1485.94L300.753,1529.33L341.438,1529.33L341.438,1543.03L287.048,1543.03Z"/>
                </g>
                <g transform="matrix(1,0,0,1,613.871,0)">
                    <path fill="white" d="M355.273,1543.03L355.273,1386.33L404.862,1386.33L404.862,1400.03L368.978,1400.03L368.978,1529.33L408.694,1529.33L408.694,1543.03L355.273,1543.03Z"/>
                </g>
                <g transform="matrix(1,0,0,1,613.871,0)">
                    <path fill="white" d="M635.367,1464.68L635.367,1386.33L692.679,1386.33L692.679,1400.03L649.072,1400.03L649.072,1450.98L692.679,1450.98L692.679,1543.03L635.367,1543.03L635.367,1529.33L678.975,1529.33L678.975,1464.68L635.367,1464.68Z"/>
                </g>
                <g transform="matrix(0.18753,0.157426,-0.379821,0.452454,1623.42,697.311)">
                    <path fill="white" d="M148.217,1471.28L305.125,1548.75L262.255,1563.66L105.347,1486.19L148.217,1471.28ZM226.517,1628.02L419.413,1723.26L376.543,1738.17L183.648,1642.93L226.517,1628.02ZM311.093,1587.77L170.798,1636.59L-34.947,1535.01L7.923,1520.09L177.68,1603.9L317.975,1555.09L559.707,1674.44L516.838,1689.36L311.093,1587.77Z"/>
                </g>
            </g>
            <g transform="matrix(0.940254,0,0,1.34612,645.091,-877.195)">
                <g transform="matrix(0.156812,0,0,0.0959927,932.864,1480.2)">
                    <path fill="white" d="M297.674,938.833L448.891,938.833L448.891,1767.63L337.537,1984.32L180.591,1984.32L180.591,1166.67L297.674,938.833ZM392.919,1030.27L323.767,1030.27L236.563,1199.96L236.563,1892.89L311.444,1892.89L392.919,1734.34L392.919,1030.27ZM342.727,1383.23L342.727,1539.93L286.755,1539.93L286.755,1383.23L342.727,1383.23Z"/>
                </g>
                <g transform="matrix(1,0,0,1,16.2829,1.83773)">
                    <path fill="white" d="M1088.81,1577.33L1070.36,1577.33L1070.36,1568.55L1136.57,1568.55L1136.57,1577.33L1111.77,1577.33L1111.77,1668.91L1102.99,1668.91L1102.99,1577.33L1097.59,1577.33L1097.59,1668.91L1088.81,1668.91L1088.81,1577.33Z"/>
                </g>
                <g transform="matrix(1,0,0,1,-6.44921,1.83773)">
                    <path fill="white" d="M1016.29,1668.91L1016.29,1568.55L1064.47,1568.55L1064.47,1577.33L1039.25,1577.33L1039.25,1614.34L1053.14,1614.34L1053.14,1623.12L1039.25,1623.12L1039.25,1668.91L1030.47,1668.91L1030.47,1577.33L1025.07,1577.33L1025.07,1668.91L1016.29,1668.91Z"/>
                </g>
                <g transform="matrix(0.120103,0.100823,-0.243254,0.289771,1535.76,1129.11)">
                    <path fill="white" d="M148.217,1471.28L305.125,1548.75L262.255,1563.66L105.347,1486.19L148.217,1471.28ZM226.517,1628.02L419.413,1723.26L376.543,1738.17L183.648,1642.93L226.517,1628.02ZM311.093,1587.77L170.798,1636.59L-34.947,1535.01L7.923,1520.09L177.68,1603.9L317.975,1555.09L559.707,1674.44L516.838,1689.36L311.093,1587.77Z"/>
                </g>
                <g transform="matrix(0.640444,0,0,0.640444,1018.91,682.521)">
                    <path fill="white" d="M287.048,1543.03L287.048,1386.33L337.267,1386.33L337.267,1430.02L323.563,1430.02L323.563,1400.03L300.753,1400.03L300.753,1472.24L320.001,1472.24L320.001,1485.94L300.753,1485.94L300.753,1529.33L341.438,1529.33L341.438,1543.03L287.048,1543.03Z"/>
                </g>
            </g>
            <g transform="matrix(0.940254,0,0,1.34612,998.616,-1086.17)">
                <g transform="matrix(1,0,0,1,588.963,2.39666)">
                    <path fill="white" d="M384.1,1745.04L320.99,1851.85L305.072,1851.85L397.805,1694.9L397.805,1851.85L384.1,1851.85L384.1,1829.74L343.69,1829.74L364.992,1790.06L374.355,1803.44L368.141,1816.7L384.1,1816.04L384.1,1745.04Z"/>
                </g>
                <g transform="matrix(1,0,0,1,875.003,311.093)">
                    <path fill="white" d="M287.048,1543.03L287.048,1386.33L337.267,1386.33L337.267,1430.02L323.563,1430.02L323.563,1400.03L300.753,1400.03L300.753,1472.24L320.001,1472.24L320.001,1485.94L300.753,1485.94L300.753,1529.33L341.438,1529.33L341.438,1543.03L287.048,1543.03Z"/>
                </g>
                <g transform="matrix(1,0,0,1,592.556,311.093)">
                    <path fill="white" d="M635.367,1464.68L635.367,1386.33L692.679,1386.33L692.679,1400.03L649.072,1400.03L649.072,1450.98L692.679,1450.98L692.679,1543.03L635.367,1543.03L635.367,1529.33L678.975,1529.33L678.975,1464.68L635.367,1464.68Z"/>
                </g>
                <g transform="matrix(1,0,0,1,607.539,2.0212)">
                    <path fill="white" d="M475.237,1851.79L475.237,1695.72L540.93,1719.85L540.93,1825.62L475.237,1851.79ZM527.225,1729.2L488.942,1715.79L488.942,1831.71L527.225,1816.27L527.225,1729.2Z"/>
                </g>
                <g transform="matrix(1,0,0,1,593.274,1.95466)">
                    <path fill="white" d="M409.079,1851.85L409.079,1695.67L474.772,1726.02L474.772,1851.85L461.068,1851.85L461.068,1734.23L422.784,1718.55L422.784,1851.85L409.079,1851.85Z"/>
                </g>
            </g>
        </g>
    </g>
    <g transform="matrix(0.399267,0,0,0.311233,1007.97,1630.36)" id="Mesa-de-trabajo14">
        <rect style="fill:none;" height="2388" width="1668" y="0" x="0"/>
        <g transform="matrix(3.30342,0,0,2.96008,-3500.58,-3285.49)">
            <g>
                <g transform="matrix(0.940254,0,0,1.34612,274.362,-667.798)">
                    <g transform="matrix(0.244848,0,0,0.149884,1060.86,1245.61)">
                        <path fill="white" d="M297.674,938.833L448.891,938.833L448.891,1767.63L337.537,1984.32L180.591,1984.32L180.591,1166.67L297.674,938.833ZM392.919,1030.27L323.767,1030.27L236.563,1199.96L236.563,1892.89L311.444,1892.89L392.919,1734.34L392.919,1030.27ZM342.727,1383.23L342.727,1539.93L286.755,1539.93L286.755,1383.23L342.727,1383.23Z"/>
                    </g>
                    <g transform="matrix(1,0,0,1,613.871,0)">
                        <path fill="white" d="M287.048,1543.03L287.048,1386.33L337.267,1386.33L337.267,1430.02L323.563,1430.02L323.563,1400.03L300.753,1400.03L300.753,1472.24L320.001,1472.24L320.001,1485.94L300.753,1485.94L300.753,1529.33L341.438,1529.33L341.438,1543.03L287.048,1543.03Z"/>
                    </g>
                    <g transform="matrix(1,0,0,1,898.736,0.62328)">
                        <path fill="white" d="M287.048,1543.03L287.048,1386.33L337.267,1386.33L337.267,1430.02L323.563,1430.02L323.563,1400.03L300.753,1400.03L300.753,1472.24L320.001,1472.24L320.001,1485.94L300.753,1485.94L300.753,1529.33L341.438,1529.33L341.438,1543.03L287.048,1543.03Z"/>
                    </g>
                    <g transform="matrix(1,0,0,1,613.871,0)">
                        <path fill="white" d="M355.273,1543.03L355.273,1386.33L404.862,1386.33L404.862,1400.03L368.978,1400.03L368.978,1529.33L408.694,1529.33L408.694,1543.03L355.273,1543.03Z"/>
                    </g>
                    <g transform="matrix(1,0,0,1,613.871,0)">
                        <path fill="white" d="M635.367,1464.68L635.367,1386.33L692.679,1386.33L692.679,1400.03L649.072,1400.03L649.072,1450.98L692.679,1450.98L692.679,1543.03L635.367,1543.03L635.367,1529.33L678.975,1529.33L678.975,1464.68L635.367,1464.68Z"/>
                    </g>
                    <g transform="matrix(0.18753,0.157426,-0.379821,0.452454,1623.42,697.311)">
                        <path fill="white" d="M148.217,1471.28L305.125,1548.75L262.255,1563.66L105.347,1486.19L148.217,1471.28ZM226.517,1628.02L419.413,1723.26L376.543,1738.17L183.648,1642.93L226.517,1628.02ZM311.093,1587.77L170.798,1636.59L-34.947,1535.01L7.923,1520.09L177.68,1603.9L317.975,1555.09L559.707,1674.44L516.838,1689.36L311.093,1587.77Z"/>
                    </g>
                </g>
                <g transform="matrix(0.940254,0,0,1.34612,278.451,-667.798)">
                    <g transform="matrix(0.156812,0,0,0.0959927,932.864,1480.2)">
                        <path fill="white" d="M297.674,938.833L448.891,938.833L448.891,1767.63L337.537,1984.32L180.591,1984.32L180.591,1166.67L297.674,938.833ZM392.919,1030.27L323.767,1030.27L236.563,1199.96L236.563,1892.89L311.444,1892.89L392.919,1734.34L392.919,1030.27ZM342.727,1383.23L342.727,1539.93L286.755,1539.93L286.755,1383.23L342.727,1383.23Z"/>
                    </g>
                    <g transform="matrix(1,0,0,1,16.2829,1.83773)">
                        <path fill="white" d="M1088.81,1577.33L1070.36,1577.33L1070.36,1568.55L1136.57,1568.55L1136.57,1577.33L1111.77,1577.33L1111.77,1668.91L1102.99,1668.91L1102.99,1577.33L1097.59,1577.33L1097.59,1668.91L1088.81,1668.91L1088.81,1577.33Z"/>
                    </g>
                    <g transform="matrix(1,0,0,1,-6.44921,1.83773)">
                        <path fill="white" d="M1016.29,1668.91L1016.29,1568.55L1064.47,1568.55L1064.47,1577.33L1039.25,1577.33L1039.25,1614.34L1053.14,1614.34L1053.14,1623.12L1039.25,1623.12L1039.25,1668.91L1030.47,1668.91L1030.47,1577.33L1025.07,1577.33L1025.07,1668.91L1016.29,1668.91Z"/>
                    </g>
                    <g transform="matrix(0.120103,0.100823,-0.243254,0.289771,1535.76,1129.11)">
                        <path fill="white" d="M148.217,1471.28L305.125,1548.75L262.255,1563.66L105.347,1486.19L148.217,1471.28ZM226.517,1628.02L419.413,1723.26L376.543,1738.17L183.648,1642.93L226.517,1628.02ZM311.093,1587.77L170.798,1636.59L-34.947,1535.01L7.923,1520.09L177.68,1603.9L317.975,1555.09L559.707,1674.44L516.838,1689.36L311.093,1587.77Z"/>
                    </g>
                    <g transform="matrix(0.640444,0,0,0.640444,1018.91,682.521)">
                        <path fill="white" d="M287.048,1543.03L287.048,1386.33L337.267,1386.33L337.267,1430.02L323.563,1430.02L323.563,1400.03L300.753,1400.03L300.753,1472.24L320.001,1472.24L320.001,1485.94L300.753,1485.94L300.753,1529.33L341.438,1529.33L341.438,1543.03L287.048,1543.03Z"/>
                    </g>
                </g>
                <g transform="matrix(0.940254,0,0,1.34612,287.618,-667.798)">
                    <g transform="matrix(1,0,0,1,588.963,2.39666)">
                        <path fill="white" d="M384.1,1745.04L320.99,1851.85L305.072,1851.85L397.805,1694.9L397.805,1851.85L384.1,1851.85L384.1,1829.74L343.69,1829.74L364.992,1790.06L374.355,1803.44L368.141,1816.7L384.1,1816.04L384.1,1745.04Z"/>
                    </g>
                    <g transform="matrix(1,0,0,1,875.003,311.093)">
                        <path fill="white" d="M287.048,1543.03L287.048,1386.33L337.267,1386.33L337.267,1430.02L323.563,1430.02L323.563,1400.03L300.753,1400.03L300.753,1472.24L320.001,1472.24L320.001,1485.94L300.753,1485.94L300.753,1529.33L341.438,1529.33L341.438,1543.03L287.048,1543.03Z"/>
                    </g>
                    <g transform="matrix(1,0,0,1,592.556,311.093)">
                        <path fill="white" d="M635.367,1464.68L635.367,1386.33L692.679,1386.33L692.679,1400.03L649.072,1400.03L649.072,1450.98L692.679,1450.98L692.679,1543.03L635.367,1543.03L635.367,1529.33L678.975,1529.33L678.975,1464.68L635.367,1464.68Z"/>
                    </g>
                    <g transform="matrix(1,0,0,1,607.539,2.0212)">
                        <path fill="white" d="M475.237,1851.79L475.237,1695.72L540.93,1719.85L540.93,1825.62L475.237,1851.79ZM527.225,1729.2L488.942,1715.79L488.942,1831.71L527.225,1816.27L527.225,1729.2Z"/>
                    </g>
                    <g transform="matrix(1,0,0,1,593.274,1.95466)">
                        <path fill="white" d="M409.079,1851.85L409.079,1695.67L474.772,1726.02L474.772,1851.85L461.068,1851.85L461.068,1734.23L422.784,1718.55L422.784,1851.85L409.079,1851.85Z"/>
                    </g>
                </g>
            </g>
        </g>
    </g>
</svg>